<svg xmlns="http://www.w3.org/2000/svg" width="16.207" height="18.522" viewBox="0 0 16.207 18.522">
    <path d="M0 16.786a1.737 1.737 0 0 0 1.736 1.736h12.735a1.737 1.737 0 0 0 1.736-1.736v-9.84H0zM11.576 9.7a.435.435 0 0 1 .434-.434h1.447a.435.435 0 0 1 .434.434v1.447a.435.435 0 0 1-.434.434h-1.446a.435.435 0 0 1-.434-.434zm0 4.631a.435.435 0 0 1 .434-.434h1.447a.435.435 0 0 1 .434.434v1.447a.435.435 0 0 1-.434.434h-1.446a.435.435 0 0 1-.434-.434zM6.946 9.7a.435.435 0 0 1 .434-.434h1.447a.435.435 0 0 1 .434.434v1.447a.435.435 0 0 1-.434.434H7.38a.435.435 0 0 1-.434-.434zm0 4.631a.435.435 0 0 1 .434-.434h1.447a.435.435 0 0 1 .434.434v1.447a.435.435 0 0 1-.434.434H7.38a.435.435 0 0 1-.434-.434zM2.315 9.7a.435.435 0 0 1 .434-.434H4.2a.435.435 0 0 1 .434.434v1.447a.435.435 0 0 1-.434.434H2.749a.435.435 0 0 1-.434-.434zm0 4.631a.435.435 0 0 1 .434-.434H4.2a.435.435 0 0 1 .434.434v1.447a.435.435 0 0 1-.434.434H2.749a.435.435 0 0 1-.434-.434zM14.471 2.315h-1.737V.579A.581.581 0 0 0 12.155 0H11a.581.581 0 0 0-.579.579v1.736H5.788V.579A.581.581 0 0 0 5.209 0H4.052a.581.581 0 0 0-.579.579v1.736H1.736A1.737 1.737 0 0 0 0 4.052v1.736h16.207V4.052a1.737 1.737 0 0 0-1.736-1.737z" data-name="Icon awesome-calendar-alt"/>
</svg>
