<svg xmlns="http://www.w3.org/2000/svg" width="52" height="52" viewBox="0 0 52 52">
    <g id="prefix__Group_312" data-name="Group 312" transform="translate(-889 -1037)">
        <circle id="prefix__Ellipse_8" cx="26" cy="26" r="26" data-name="Ellipse 8" transform="translate(889 1037)" style="fill:#2b83fc"/>
        <path id="prefix__Icon_awesome-google" d="M22.99 12.519c0 6.666-4.565 11.41-11.307 11.41a11.684 11.684 0 1 1 0-23.367 11.236 11.236 0 0 1 7.835 3.058l-3.18 3.058c-4.16-4.014-11.9-1-11.9 5.569a7.319 7.319 0 0 0 7.241 7.378c4.626 0 6.36-3.317 6.633-5.036h-6.628v-4.02h11.123a10.243 10.243 0 0 1 .183 1.95z" data-name="Icon awesome-google" transform="translate(904 1050.438)" style="fill:#fff"/>
    </g>
</svg>
