<svg xmlns="http://www.w3.org/2000/svg" width="22.5" height="22.5" viewBox="0 0 22.5 22.5">
    <path d="M11.25 0A11.25 11.25 0 1 0 22.5 11.25 11.25 11.25 0 0 0 11.25 0zm-.514 10.9a.726.726 0 0 1-.622.352H10.1a.726.726 0 0 0-.513.213l-.257.257a.363.363 0 0 0 0 .513l.257.257a.726.726 0 0 1 .213.513v.425a.726.726 0 0 1-.726.726H8.8a.725.725 0 0 1-.649-.4L7.121 11.7a.363.363 0 0 0-.581-.094l-.883.883a.726.726 0 0 1-.513.213H2.3a9.055 9.055 0 0 1 11.746-10.08L11.77 4.37a.363.363 0 0 0 .039.626l.491.245a.726.726 0 0 1 .4.649v3.547a.363.363 0 0 1-.363.363H12.2a.362.362 0 0 1-.324-.2.2.2 0 0 0-.352-.014l-.788 1.313zm7.772 5a.726.726 0 0 1-.213.513l-.434.434a.726.726 0 0 1-.513.213h-.688a.726.726 0 0 1-.513-.213l-.59-.59a1.214 1.214 0 0 0-1.157-.32l-.965.241a.719.719 0 0 1-.176.022h-.469a.726.726 0 0 1-.513-.213l-.54-.54a.363.363 0 0 1-.106-.257v-.463a.363.363 0 0 1 .228-.337l1.785-.714a1.216 1.216 0 0 0 .256-.139l1.076-.766a.362.362 0 0 1 .21-.067h.548a.363.363 0 0 1 .335.224l.243.583a.181.181 0 0 0 .167.112h.172a.181.181 0 0 0 .174-.131l.191-.656a.181.181 0 0 1 .174-.131h.275a.181.181 0 0 1 .181.181v.587a.363.363 0 0 0 .106.257l.54.54a.726.726 0 0 1 .213.513v1.116z" data-name="Icon awesome-globe-asia"/>
</svg>
