<svg xmlns="http://www.w3.org/2000/svg" width="23.28" height="23.275" viewBox="0 0 23.28 23.275">
    <path d="M11.642 5.67a5.967 5.967 0 1 0 5.963 5.967 5.958 5.958 0 0 0-5.963-5.967zm0 9.847a3.88 3.88 0 1 1 3.88-3.88 3.887 3.887 0 0 1-3.88 3.88zm7.6-10.091a1.392 1.392 0 1 1-1.392-1.392 1.389 1.389 0 0 1 1.396 1.392zm3.952 1.413a6.888 6.888 0 0 0-1.876-4.877 6.933 6.933 0 0 0-4.877-1.88c-1.922-.109-7.681-.109-9.6 0a6.923 6.923 0 0 0-4.879 1.874 6.911 6.911 0 0 0-1.88 4.877c-.109 1.922-.109 7.681 0 9.6a6.888 6.888 0 0 0 1.88 4.877 6.942 6.942 0 0 0 4.877 1.88c1.922.109 7.681.109 9.6 0a6.888 6.888 0 0 0 4.877-1.88 6.933 6.933 0 0 0 1.88-4.877c.109-1.922.109-7.676 0-9.6zm-2.483 11.66a3.928 3.928 0 0 1-2.206 2.211c-1.532.608-5.168.467-6.861.467s-5.334.135-6.861-.467a3.928 3.928 0 0 1-2.212-2.212c-.609-1.536-.466-5.168-.466-6.861s-.135-5.334.467-6.861a3.928 3.928 0 0 1 2.21-2.214c1.532-.608 5.168-.467 6.861-.467s5.333-.133 6.862.467a3.928 3.928 0 0 1 2.212 2.212c.608 1.532.467 5.168.467 6.861s.139 5.336-.468 6.863z" data-name="Icon awesome-instagram"/>
</svg>
