<svg xmlns="http://www.w3.org/2000/svg" width="22.5" height="22.5" viewBox="0 0 22.5 22.5">
    <path d="M20.893 0H1.6A1.614 1.614 0 0 0 0 1.622v19.256A1.614 1.614 0 0 0 1.6 22.5h19.293a1.618 1.618 0 0 0 1.607-1.622V1.622A1.618 1.618 0 0 0 20.893 0zM6.8 19.286H3.465V8.55h3.34v10.736zM5.133 7.081A1.934 1.934 0 1 1 7.066 5.15a1.934 1.934 0 0 1-1.933 1.931zM19.3 19.286h-3.334v-5.223c0-1.246-.025-2.848-1.733-2.848-1.738 0-2 1.356-2 2.757v5.314H8.895V8.55h3.2v1.467h.045a3.512 3.512 0 0 1 3.16-1.735c3.375 0 4 2.225 4 5.118z" data-name="Icon awesome-linkedin"/>
</svg>
