<svg xmlns="http://www.w3.org/2000/svg" width="52" height="52" viewBox="0 0 52 52">
    <g id="prefix__Group_314" data-name="Group 314" transform="translate(-751 -1037)">
        <circle id="prefix__Ellipse_6" cx="26" cy="26" r="26" data-name="Ellipse 6" transform="translate(751 1037)" style="fill:#1d66a3"/>
        <path id="prefix__Icon_awesome-linkedin-in" d="M5.194 23.2H.383V7.712h4.811zM2.786 5.6a2.8 2.8 0 1 1 2.786-2.813A2.809 2.809 0 0 1 2.786 5.6zM23.2 23.2h-4.8v-7.538c0-1.8-.036-4.1-2.5-4.1-2.5 0-2.884 1.953-2.884 3.972V23.2H8.207V7.712h4.614v2.113h.067a5.055 5.055 0 0 1 4.552-2.5c4.869 0 5.763 3.206 5.763 7.37V23.2z" data-name="Icon awesome-linkedin-in" transform="translate(765 1050.999)" style="fill:#fff"/>
    </g>
</svg>
