<svg xmlns="http://www.w3.org/2000/svg" width="18.667" height="24.562" data-name="Group 802" viewBox="0 0 18.667 24.562">
    <g data-name="Icon ionic-ios-document">
        <path d="M12.772 6.08h5.588a.3.3 0 0 0 .307-.307 1.817 1.817 0 0 0-.657-1.411l-4.685-3.9A1.972 1.972 0 0 0 12.06.008a.453.453 0 0 0-.456.454v4.451a1.166 1.166 0 0 0 1.168 1.167z" data-name="Path 116"/>
        <path d="M10.009 4.912V0H1.964A1.971 1.971 0 0 0 0 1.962v20.635a1.971 1.971 0 0 0 1.964 1.965h14.738a1.971 1.971 0 0 0 1.965-1.965V7.675h-5.895a2.767 2.767 0 0 1-2.763-2.763z" data-name="Path 117"/>
    </g>
</svg>
