<svg xmlns="http://www.w3.org/2000/svg" width="63" height="37" viewBox="0 0 63 37">
    <g id="prefix__Group_821" data-name="Group 821" transform="translate(-1064 -1880)">
        <path id="prefix__Icon_payment-visa" d="M9.591 20.4a1.356 1.356 0 0 0-1.526-1.1H2.611l-.04.264c3.743.957 6.817 2.992 8.2 6.838zm1.526 7.814l-.346-1.814a8.169 8.169 0 0 0-4.4-4.436l2.751 10.379h3.561L17.995 19.3h-3.582l-3.3 8.913zm9.5 4.15L22.735 19.3h-3.377l-2.117 13.063zm9.217-13.287c-3.337 0-5.676 1.771-5.7 4.313-.021 1.873 1.669 2.91 2.95 3.542 1.323.63 1.75 1.058 1.75 1.627 0 .875-1.058 1.262-2.014 1.262a6.4 6.4 0 0 1-3.174-.672l-.448-.224-.468 2.93a9.841 9.841 0 0 0 3.764.693c3.541.021 5.841-1.75 5.881-4.456 0-1.486-.915-2.6-2.849-3.542-1.179-.589-1.891-1.018-1.891-1.627 0-.549.61-1.12 1.933-1.12a5.612 5.612 0 0 1 2.523.49l.305.162.467-2.828a8.394 8.394 0 0 0-3.032-.55zm9.076.224a1.671 1.671 0 0 0-1.771 1.1l-5.004 11.962h3.541c.571-1.606.713-1.954.713-1.954H40.7s.1.448.406 1.954h3.134L41.517 19.3h-2.6zm-1.568 8.424s.285-.753 1.344-3.643c-.021.021.285-.753.448-1.241l.243 1.12c.63 3.113.774 3.764.774 3.764h-2.81z" data-name="Icon payment-visa" transform="translate(1071.43 1872.924)" style="fill:#9a9a8b"/>
        <g id="prefix__Rectangle_109" data-name="Rectangle 109" transform="translate(1064 1880)" style="stroke:#000;fill:none">
            <rect width="63" height="37" rx="5" style="stroke:none"/>
            <rect width="62" height="36" x=".5" y=".5" rx="4.5" style="fill:none"/>
        </g>
    </g>
</svg>
