<?xml version="1.0" encoding="utf-8"?>
<!-- Generator: Adobe Illustrator 24.2.3, SVG Export Plug-In . SVG Version: 6.00 Build 0)  -->
<svg version="1.1" xmlns="http://www.w3.org/2000/svg" xmlns:xlink="http://www.w3.org/1999/xlink" x="0px" y="0px"
	 viewBox="0 0 24 24" style="enable-background:new 0 0 24 24;" xml:space="preserve">
<style type="text/css">
	.st0{fill:#FFFFFF;}
</style>
<g id="Artwork">
</g>
<g id="Labels">
	<path d="M20,24H4c-2.21,0-4-1.79-4-4V4c0-2.21,1.79-4,4-4h16c2.21,0,4,1.79,4,4v16C24,22.21,22.21,24,20,24z"/>
	<g id="logo_2_">
		<g>
			<path class="st0" d="M7.47,5.01c1.04,0,2.22,0.33,2.98,0.92V5H13v10c0,3.21-2.19,5.92-5.51,5.92c-1.78,0-3.32-1.25-4.2-2.33
				l1.82-1.82c0.35,0.53,1.36,1.22,2.32,1.22c2,0,2.76-1.38,2.76-3.02v-0.31C9.34,15.01,8.52,15,7.47,15C4.79,15,3,13.07,3,10
				S4.79,5.01,7.47,5.01z M7.92,12.64c1.31,0,2.53-0.81,2.53-2.33c0-1.54-1.22-2.79-2.53-2.79c-1.33,0-2.59,1.26-2.59,2.79
				C5.33,11.83,6.59,12.64,7.92,12.64z"/>
		</g>
		<rect x="15" y="4" class="st0" width="6" height="3"/>
	</g>
</g>
<g id="iOS_Mask__x28_hide_before_export_x29_">
</g>
</svg>
