<svg xmlns="http://www.w3.org/2000/svg" width="299.819" height="42.124" viewBox="0 0 299.819 42.124">
    <g data-name="Group 922">
        <g data-name="Group 920">
            <path d="M70.958 6.169V.887h31.7v5.282z" data-name="Path 197"/>
            <g data-name="Group 918">
                <path d="M.809 33.55l7.012.85a2.389 2.389 0 0 0 .805 1.681 4.634 4.634 0 0 0 2.755.656 7.131 7.131 0 0 0 3.6-.719 2.987 2.987 0 0 0 1.226-1.551 9.435 9.435 0 0 0 .283-2.818v-3.386a8.309 8.309 0 0 1-6.949 3.754 8.546 8.546 0 0 1-7.4-3.951 13.438 13.438 0 0 1-2.14-7.776q0-5.832 2.807-8.913a9.067 9.067 0 0 1 6.978-3.079 8.5 8.5 0 0 1 7.1 3.78V8.824h5.744V29.64a20.754 20.754 0 0 1-.675 6.136 7.621 7.621 0 0 1-1.9 3.191 8.413 8.413 0 0 1-3.266 1.812 17.207 17.207 0 0 1-5.167.656q-5.9 0-8.365-2.021a6.329 6.329 0 0 1-2.468-5.122c-.002-.205.005-.452.02-.742zm5.48-13.61q0 3.69 1.431 5.405a4.419 4.419 0 0 0 3.527 1.715 4.877 4.877 0 0 0 3.8-1.756 7.681 7.681 0 0 0 1.551-5.211q0-3.6-1.484-5.349a4.719 4.719 0 0 0-3.758-1.748 4.529 4.529 0 0 0-3.638 1.715 8.036 8.036 0 0 0-1.429 5.229z" data-name="Path 198" transform="translate(0 .69)"/>
                <path d="M29.818 5.677V0h6.136v5.677zm0 26.34V8.824h6.136v23.194z" data-name="Path 199" transform="translate(0 .69)"/>
                <path d="M42.798 33.55l7.012.85a2.39 2.39 0 0 0 .805 1.681 4.634 4.634 0 0 0 2.755.656 7.156 7.156 0 0 0 3.6-.719 3 3 0 0 0 1.223-1.551 9.431 9.431 0 0 0 .283-2.818v-3.386a8.3 8.3 0 0 1-6.945 3.754 8.556 8.556 0 0 1-7.407-3.951 13.437 13.437 0 0 1-2.14-7.776q0-5.832 2.807-8.913a9.067 9.067 0 0 1 6.978-3.079 8.492 8.492 0 0 1 7.1 3.78V8.824h5.744V29.64a20.754 20.754 0 0 1-.675 6.136 7.582 7.582 0 0 1-1.9 3.191 8.413 8.413 0 0 1-3.266 1.812 17.206 17.206 0 0 1-5.167.656q-5.894 0-8.365-2.021a6.339 6.339 0 0 1-2.468-5.122c.004-.205.011-.452.026-.742zm5.484-13.61q0 3.69 1.428 5.405a4.426 4.426 0 0 0 3.53 1.715 4.875 4.875 0 0 0 3.8-1.756 7.681 7.681 0 0 0 1.551-5.211q0-3.6-1.484-5.349a4.719 4.719 0 0 0-3.758-1.748 4.529 4.529 0 0 0-3.638 1.715 8.036 8.036 0 0 0-1.43 5.229z" data-name="Path 200" transform="translate(0 .69)"/>
            </g>
            <g data-name="Group 919">
                <path d="M6.136 32.022H-.005V8.302h5.7v3.821a9.93 9.93 0 0 1 2.632-3.079 4.833 4.833 0 0 1 2.654-.742 7.792 7.792 0 0 1 4.041 1.156l-1.9 5.353a5.374 5.374 0 0 0-2.882-1.006 3.4 3.4 0 0 0-2.184.712 4.856 4.856 0 0 0-1.409 2.565 36.363 36.363 0 0 0-.514 7.776z" data-name="Path 201" transform="translate(108.999)"/>
                <path d="M32.219 24.637l6.117 1.029a10.052 10.052 0 0 1-3.724 5.122 10.95 10.95 0 0 1-6.367 1.76q-6.05 0-8.954-3.955a13.259 13.259 0 0 1-2.3-8q0-5.765 3.016-9.029a9.928 9.928 0 0 1 7.623-3.266 10.284 10.284 0 0 1 8.168 3.418q2.991 3.417 2.863 10.471H23.287a6.222 6.222 0 0 0 1.484 4.25 4.657 4.657 0 0 0 3.541 1.517 3.754 3.754 0 0 0 2.423-.787 4.832 4.832 0 0 0 1.484-2.53zm.35-6.2a5.926 5.926 0 0 0-1.376-4.052 4.427 4.427 0 0 0-6.509.078 5.667 5.667 0 0 0-1.29 3.974z" data-name="Path 202" transform="translate(108.999)"/>
                <path d="M44.331 8.824h5.659v3.169a9.1 9.1 0 0 1 7.228-3.69 7.792 7.792 0 0 1 3.866.917 7.062 7.062 0 0 1 2.688 2.773 10.674 10.674 0 0 1 3.3-2.773 8.084 8.084 0 0 1 3.776-.917 8.394 8.394 0 0 1 4.324 1.036 6.334 6.334 0 0 1 2.643 3.046 13.175 13.175 0 0 1 .634 4.805v14.833h-6.136v-13.26q0-3.45-.634-4.455a2.911 2.911 0 0 0-2.621-1.312 4.2 4.2 0 0 0-2.427.787 4.377 4.377 0 0 0-1.637 2.3 16.587 16.587 0 0 0-.5 4.8v11.138h-6.143V19.31a17.733 17.733 0 0 0-.328-4.369 2.8 2.8 0 0 0-1.018-1.465 3.208 3.208 0 0 0-1.868-.481 4.485 4.485 0 0 0-2.554.764 4.2 4.2 0 0 0-1.629 2.207 16.385 16.385 0 0 0-.492 4.783v11.273h-6.131z" data-name="Path 203" transform="translate(108.999)"/>
                <path d="M84.258 20.097a12.574 12.574 0 0 1 1.506-5.92 10.346 10.346 0 0 1 4.272-4.369 12.651 12.651 0 0 1 6.169-1.506 11.567 11.567 0 0 1 8.626 3.418 11.8 11.8 0 0 1 3.366 8.637 11.96 11.96 0 0 1-3.4 8.727 11.486 11.486 0 0 1-8.547 3.467 13.449 13.449 0 0 1-6.084-1.443 9.9 9.9 0 0 1-4.4-4.227 14.1 14.1 0 0 1-1.508-6.784zm6.289.328a7.692 7.692 0 0 0 1.64 5.286 5.356 5.356 0 0 0 8.07 0 7.8 7.8 0 0 0 1.625-5.331 7.641 7.641 0 0 0-1.625-5.241 5.349 5.349 0 0 0-8.07 0 7.68 7.68 0 0 0-1.637 5.286z" data-name="Path 204" transform="translate(108.999)"/>
                <path d="M124.76 8.302v5.416h-4.194v9.349a22.989 22.989 0 0 0 .119 3.306 1.332 1.332 0 0 0 .544.775 1.725 1.725 0 0 0 1.04.306 7.882 7.882 0 0 0 2.468-.589l.522 4.76a12.183 12.183 0 0 1-4.846.921 7.665 7.665 0 0 1-2.993-.559 4.384 4.384 0 0 1-1.957-1.443 5.7 5.7 0 0 1-.861-2.389 29.8 29.8 0 0 1-.2-4.324V13.718h-2.818V8.302h2.818V.634h6.162v7.668z" data-name="Path 205" transform="translate(108.999)"/>
                <path d="M143.57 24.637l6.113 1.029a10.051 10.051 0 0 1-3.724 5.122 10.95 10.95 0 0 1-6.367 1.76q-6.05 0-8.954-3.955a13.281 13.281 0 0 1-2.293-8q0-5.765 3.012-9.029a9.928 9.928 0 0 1 7.623-3.266 10.284 10.284 0 0 1 8.167 3.418q3 3.417 2.863 10.471h-15.375a6.239 6.239 0 0 0 1.484 4.25 4.657 4.657 0 0 0 3.541 1.517 3.754 3.754 0 0 0 2.423-.787 4.858 4.858 0 0 0 1.487-2.53zm.347-6.2a5.907 5.907 0 0 0-1.375-4.052 4.427 4.427 0 0 0-6.509.078 5.666 5.666 0 0 0-1.29 3.974z" data-name="Path 206" transform="translate(108.999)"/>
                <path d="M156.133 32.021V0h6.136v32.021z" data-name="Path 207" transform="translate(108.999)"/>
                <path d="M166.492 8.302h6.632l5.726 16.991 5.588-16.991h6.386l-8.388 22.849-1.465 4.041a16.414 16.414 0 0 1-1.54 3.1 6.724 6.724 0 0 1-1.681 1.733 7.422 7.422 0 0 1-2.337 1.04 12.208 12.208 0 0 1-3.135.369 16.337 16.337 0 0 1-3.47-.369l-.548-4.805a13.814 13.814 0 0 0 2.6.283 3.863 3.863 0 0 0 3.169-1.256 8.724 8.724 0 0 0 1.573-3.2z" data-name="Path 208" transform="translate(108.999)"/>
            </g>
        </g>
    </g>
</svg>
